<svg viewBox="0 0 32 32" fill="none" xmlns="http://www.w3.org/2000/svg" id="Ticket--Streamline-Unicons.svg" height="32" width="32"><desc>Ticket Streamline Icon: https://streamlinehq.com</desc><path d="M11.296 12.863999999999999c-0.41586666666666666 0 -0.8146666666666667 0.16519999999999999 -1.1088 0.45919999999999994 -0.294 0.294 -0.45919999999999994 0.6929333333333334 -0.45919999999999994 1.1088v3.1359999999999997c0 0.41586666666666666 0.16519999999999999 0.8146666666666667 0.45919999999999994 1.1086666666666667 0.2941333333333333 0.294 0.6929333333333334 0.45933333333333326 1.1088 0.45933333333333326s0.8146666666666667 -0.16533333333333333 1.1088 -0.45933333333333326c0.294 -0.294 0.45919999999999994 -0.6927999999999999 0.45919999999999994 -1.1086666666666667v-3.1359999999999997c0 -0.41586666666666666 -0.16519999999999999 -0.8148 -0.45919999999999994 -1.1088 -0.2941333333333333 -0.294 -0.6929333333333334 -0.45919999999999994 -1.1088 -0.45919999999999994Zm18.816 1.5679999999999998c0.41586666666666666 0 0.8146666666666667 -0.16533333333333333 1.1088 -0.45933333333333326s0.45919999999999994 -0.6927999999999999 0.45919999999999994 -1.1086666666666667V6.592c0 -0.41586666666666666 -0.16519999999999999 -0.8146666666666667 -0.45919999999999994 -1.1088 -0.294 -0.294 -0.6929333333333334 -0.45919999999999994 -1.1088 -0.45919999999999994H1.888c-0.41586666666666666 0 -0.8146666666666667 0.16519999999999999 -1.1088 0.45919999999999994C0.48519999999999996 5.777333333333333 0.31999999999999995 6.1761333333333335 0.31999999999999995 6.592v6.271999999999999c0 0.41586666666666666 0.16519999999999999 0.8146666666666667 0.45919999999999994 1.1086666666666667 0.2941333333333333 0.294 0.6929333333333334 0.45933333333333326 1.1088 0.45933333333333326s0.8146666666666667 0.16519999999999999 1.1088 0.45919999999999994c0.294 0.294 0.45919999999999994 0.6929333333333334 0.45919999999999994 1.1088 0 0.41586666666666666 -0.16519999999999999 0.8146666666666667 -0.45919999999999994 1.1086666666666667 -0.2941333333333333 0.294 -0.6929333333333334 0.45933333333333326 -1.1088 0.45933333333333326s-0.8146666666666667 0.16519999999999999 -1.1088 0.45919999999999994c-0.294 0.294 -0.45919999999999994 0.6929333333333334 -0.45919999999999994 1.1088v6.271999999999999c0 0.41586666666666666 0.16519999999999999 0.8146666666666667 0.45919999999999994 1.1086666666666667 0.2941333333333333 0.2941333333333333 0.6929333333333334 0.45933333333333326 1.1088 0.45933333333333326h28.223999999999997c0.41586666666666666 0 0.8146666666666667 -0.16519999999999999 1.1088 -0.45933333333333326s0.45919999999999994 -0.6927999999999999 0.45919999999999994 -1.1086666666666667v-6.271999999999999c0 -0.41586666666666666 -0.16519999999999999 -0.8148 -0.45919999999999994 -1.1088s-0.6929333333333334 -0.45919999999999994 -1.1088 -0.45919999999999994c-0.41586666666666666 0 -0.8146666666666667 -0.16533333333333333 -1.1086666666666667 -0.45933333333333326s-0.45933333333333326 -0.6927999999999999 -0.45933333333333326 -1.1086666666666667c0 -0.41586666666666666 0.16533333333333333 -0.8148 0.45933333333333326 -1.1088s0.6927999999999999 -0.45919999999999994 1.1086666666666667 -0.45919999999999994Zm-1.5679999999999998 -2.853733333333333c-0.9081333333333333 0.3296 -1.6926666666666668 0.9308000000000001 -2.2472 1.722 -0.5545333333333333 0.7909333333333333 -0.852 1.7337333333333333 -0.852 2.699733333333333 0 0.966 0.29746666666666666 1.9086666666666665 0.852 2.699733333333333 0.5545333333333333 0.7912 1.3390666666666666 1.3923999999999999 2.2472 1.722V23.839999999999996H12.863999999999999c0 -0.41586666666666666 -0.16519999999999999 -0.8148 -0.45919999999999994 -1.1088 -0.2941333333333333 -0.294 -0.6929333333333334 -0.45919999999999994 -1.1088 -0.45919999999999994s-0.8146666666666667 0.16519999999999999 -1.1088 0.45919999999999994c-0.294 0.294 -0.45919999999999994 0.6929333333333334 -0.45919999999999994 1.1088H3.456v-3.4182666666666663c0.9081333333333333 -0.3296 1.6926666666666668 -0.9308000000000001 2.2472 -1.722 0.5545333333333333 -0.7910666666666667 0.8518666666666667 -1.7337333333333333 0.8518666666666667 -2.699733333333333 0 -0.966 -0.29733333333333334 -1.9086666666666665 -0.8518666666666667 -2.699733333333333 -0.5545333333333333 -0.7912 -1.3390666666666666 -1.3923999999999999 -2.2472 -1.722V8.16h6.271999999999999c0 0.41586666666666666 0.16519999999999999 0.8146666666666667 0.45919999999999994 1.1088 0.2941333333333333 0.294 0.6929333333333334 0.45919999999999994 1.1088 0.45919999999999994s0.8146666666666667 -0.16519999999999999 1.1088 -0.45919999999999994c0.294 -0.2941333333333333 0.45919999999999994 -0.6929333333333334 0.45919999999999994 -1.1088h15.68v3.4182666666666663Z" fill="#000000" stroke-width="1"></path></svg>